<svg width="25" height="24" viewBox="0 0 25 24" fill="none" xmlns="http://www.w3.org/2000/svg">
<path d="M12.5 4H5.5C3.84 4 2.5 5.34 2.5 7V15C2.5 16.66 3.84 18 5.5 18L4.73 18.77C4.45 19.05 4.45 19.49 4.73 19.77C5.01 20.05 5.45 20.05 5.73 19.77L7.5 18H9.5V13H5C4.72 13 4.5 12.78 4.5 12.5V6.5C4.5 6.22 4.72 6 5 6H13C13.28 6 13.5 6.22 13.5 6.5V8H15.5V7C15.5 5.34 14.16 4 12.5 4ZM5.5 14C6.05 14 6.5 14.45 6.5 15C6.5 15.55 6.05 16 5.5 16C4.95 16 4.5 15.55 4.5 15C4.5 14.45 4.95 14 5.5 14ZM21.07 9.66C20.93 9.26 20.55 9 20.1 9H12.91C12.45 9 12.08 9.26 11.93 9.66L10.51 13.77V19.01C10.51 19.56 10.96 20 11.51 20C12.06 20 12.51 19.55 12.51 19V18H20.51V19C20.51 19.55 20.96 20 21.51 20C22.06 20 22.5 19.56 22.51 19.01L22.5 13.77L21.07 9.66ZM13.27 10H19.75C19.96 10 20.15 10.14 20.22 10.34L20.91 12.34C21.02 12.66 20.78 13 20.44 13H12.59C12.25 13 12.01 12.66 12.12 12.34L12.81 10.34C12.86 10.14 13.05 10 13.27 10ZM12.5 16C11.95 16 11.5 15.55 11.5 15C11.5 14.45 11.95 14 12.5 14C13.05 14 13.5 14.45 13.5 15C13.5 15.55 13.05 16 12.5 16ZM20.5 16C19.95 16 19.5 15.55 19.5 15C19.5 14.45 19.95 14 20.5 14C21.05 14 21.5 14.45 21.5 15C21.5 15.55 21.05 16 20.5 16Z" fill="#337DCA"/>
</svg>
