<svg width="8" height="8" viewBox="0 0 8 8" fill="none" xmlns="http://www.w3.org/2000/svg">
<path d="M7.14986 0.854863C6.95486 0.659863 6.63986 0.659863 6.44486 0.854863L3.99986 3.29486L1.55486 0.849863C1.35986 0.654863 1.04486 0.654863 0.849863 0.849863C0.654863 1.04486 0.654863 1.35986 0.849863 1.55486L3.29486 3.99986L0.849863 6.44486C0.654863 6.63986 0.654863 6.95486 0.849863 7.14986C1.04486 7.34486 1.35986 7.34486 1.55486 7.14986L3.99986 4.70486L6.44486 7.14986C6.63986 7.34486 6.95486 7.34486 7.14986 7.14986C7.34486 6.95486 7.34486 6.63986 7.14986 6.44486L4.70486 3.99986L7.14986 1.55486C7.33986 1.36486 7.33986 1.04486 7.14986 0.854863V0.854863Z" fill="#666666"/>
</svg>
