<svg width="19" height="20" viewBox="0 0 19 20" fill="none" xmlns="http://www.w3.org/2000/svg">
<path d="M18.5 0.210195C18.37 0.210195 18.24 0.260195 18.15 0.360195L17.36 1.1502C17.16 1.3502 16.85 1.3502 16.65 1.1502L15.86 0.360195C15.66 0.160195 15.35 0.160195 15.15 0.360195L14.36 1.1502C14.16 1.3502 13.85 1.3502 13.65 1.1502L12.86 0.360195C12.66 0.160195 12.35 0.160195 12.15 0.360195L11.36 1.1502C11.16 1.3502 10.85 1.3502 10.65 1.1502L9.86 0.360195C9.66 0.160195 9.35 0.160195 9.15 0.360195L8.36 1.1502C8.16 1.3502 7.85 1.3502 7.65 1.1502L6.85 0.350195C6.65 0.150195 6.34 0.150195 6.14 0.350195L5.35 1.1502C5.15 1.3502 4.84 1.3502 4.64 1.1502L3.85 0.350195C3.65 0.150195 3.34 0.150195 3.14 0.350195L2.35 1.1502C2.15 1.3502 1.84 1.3502 1.64 1.1502L0.85 0.350195C0.76 0.260195 0.63 0.210195 0.5 0.210195V19.8002C0.63 19.8002 0.76 19.7502 0.85 19.6502L1.64 18.8602C1.84 18.6602 2.15 18.6602 2.35 18.8602L3.14 19.6502C3.34 19.8502 3.65 19.8502 3.85 19.6502L4.64 18.8602C4.84 18.6602 5.15 18.6602 5.35 18.8602L6.14 19.6502C6.34 19.8502 6.65 19.8502 6.85 19.6502L7.64 18.8602C7.84 18.6602 8.15 18.6602 8.35 18.8602L9.14 19.6502C9.34 19.8502 9.65 19.8502 9.85 19.6502L10.64 18.8602C10.84 18.6602 11.15 18.6602 11.35 18.8602L12.14 19.6502C12.34 19.8502 12.65 19.8502 12.85 19.6502L13.64 18.8602C13.84 18.6602 14.15 18.6602 14.35 18.8602L15.14 19.6502C15.34 19.8502 15.65 19.8502 15.85 19.6502L16.64 18.8602C16.84 18.6602 17.15 18.6602 17.35 18.8602L18.14 19.6502C18.24 19.7502 18.37 19.8002 18.49 19.8002V0.210195H18.5ZM14.5 15.0002H4.5C3.95 15.0002 3.5 14.5502 3.5 14.0002C3.5 13.4502 3.95 13.0002 4.5 13.0002H14.5C15.05 13.0002 15.5 13.4502 15.5 14.0002C15.5 14.5502 15.05 15.0002 14.5 15.0002ZM14.5 11.0002H4.5C3.95 11.0002 3.5 10.5502 3.5 10.0002C3.5 9.4502 3.95 9.0002 4.5 9.0002H14.5C15.05 9.0002 15.5 9.4502 15.5 10.0002C15.5 10.5502 15.05 11.0002 14.5 11.0002ZM14.5 7.0002H4.5C3.95 7.0002 3.5 6.5502 3.5 6.0002C3.5 5.4502 3.95 5.0002 4.5 5.0002H14.5C15.05 5.0002 15.5 5.4502 15.5 6.0002C15.5 6.5502 15.05 7.0002 14.5 7.0002Z" fill="#337DCA"/>
</svg>
