<svg width="219" height="52" viewBox="0 0 219 52" fill="none" xmlns="http://www.w3.org/2000/svg">
<path d="M77.336 19.5613L71.5821 12.3639L76.9701 6H73.412L68.6137 12.0589V6H65.7266V19.5613H68.6137V15.3933L69.6709 14.1327L73.778 19.5613H77.336Z" fill="#333333"/>
<path d="M91.2987 19.5613L86.0735 6H82.4544L77.2088 19.5613H80.5025L81.3565 17.2638H87.1714L88.005 19.5613H91.2987ZM86.3784 14.7223H82.1494L84.2639 8.88712L86.3784 14.7223Z" fill="#333333"/>
<path d="M95.4382 19.5613V14.7427H98.8946C101.822 14.7427 103.449 12.7298 103.449 10.3713C103.449 7.99252 101.843 6 98.8946 6H92.5511V19.5613H95.4382ZM98.5083 12.2012H95.4382V8.54148H98.5083C99.6469 8.54148 100.501 9.23276 100.501 10.3713C100.501 11.4896 99.6469 12.2012 98.5083 12.2012Z" fill="#333333"/>
<path d="M112.599 19.5613C115.181 19.5613 116.543 17.9348 116.543 15.9016C116.543 14.1937 115.384 12.7908 113.941 12.5672C115.222 12.3029 116.279 11.1643 116.279 9.45641C116.279 7.64688 114.957 6 112.375 6H105.239V19.5613H112.599ZM111.745 11.4286H108.126V8.48048H111.745C112.721 8.48048 113.331 9.11077 113.331 9.9647C113.331 10.8186 112.721 11.4286 111.745 11.4286ZM111.846 17.0605H108.126V13.9091H111.846C112.985 13.9091 113.595 14.641 113.595 15.495C113.595 16.4709 112.944 17.0605 111.846 17.0605Z" fill="#333333"/>
<path d="M121.506 19.5613L127.971 10.473V19.5613H130.858V6H127.89L121.607 14.763V6H118.72V19.5613H121.506Z" fill="#333333"/>
<path d="M145.731 19.5613V6H142.824V11.3269H136.419V6H133.532V19.5613H136.419V13.8684H142.824V19.5613H145.731Z" fill="#333333"/>
<path d="M151.291 19.5613V8.54148H158.001V6H148.404V19.5613H151.291Z" fill="#333333"/>
<mask id="mask0_100_1602" style="mask-type:alpha" maskUnits="userSpaceOnUse" x="0" y="0" width="55" height="52">
<path d="M0 3.97408C0 2.10259 1.51714 0.585449 3.38864 0.585449H50.8295C52.701 0.585449 54.2182 2.10259 54.2182 3.97408V37.8604C54.2182 45.3464 48.1496 51.415 40.6636 51.415H3.38864C1.51714 51.415 0 49.8978 0 48.0263V3.97408Z" fill="#556EC7"/>
</mask>
<g mask="url(#mask0_100_1602)">
<path d="M0 3.97408C0 2.10259 1.51714 0.585449 3.38864 0.585449H50.8295C52.701 0.585449 54.2182 2.10259 54.2182 3.97408V37.8604C54.2182 45.3464 48.1496 51.415 40.6636 51.415H3.38864C1.51714 51.415 0 49.8978 0 48.0263V3.97408Z" fill="#005EC0"/>
<path d="M0 9.90426C0 8.03277 1.51714 6.51562 3.38864 6.51562H44.8994C46.7709 6.51562 48.2881 8.03277 48.2881 9.90426V44.6378C48.2881 48.3808 45.2538 51.415 41.5108 51.415H3.38863C1.51714 51.415 0 49.8979 0 48.0264V9.90426Z" fill="#004C9B"/>
<path d="M0 9.90426C0 8.03277 1.51714 6.51562 3.38864 6.51562H44.8994C46.7709 6.51562 48.2881 8.03277 48.2881 9.90426V44.6378C48.2881 48.3808 45.2538 51.415 41.5108 51.415H3.38863C1.51714 51.415 0 49.8979 0 48.0264V9.90426Z" fill="#004C9B"/>
<path d="M0 9.90426C0 8.03277 1.51714 6.51562 3.38864 6.51562H44.8994C46.7709 6.51562 48.2881 8.03277 48.2881 9.90426V44.6378C48.2881 48.3808 45.2538 51.415 41.5108 51.415H3.38863C1.51714 51.415 0 49.8979 0 48.0264V9.90426Z" fill="#004C9B"/>
<path d="M0 9.90426C0 8.03277 1.51714 6.51562 3.38864 6.51562H44.8994C46.7709 6.51562 48.2881 8.03277 48.2881 9.90426V44.6378C48.2881 48.3808 45.2538 51.415 41.5108 51.415H3.38863C1.51714 51.415 0 49.8979 0 48.0264V9.90426Z" fill="#004C9B"/>
<path d="M0 9.90426C0 8.03277 1.51714 6.51562 3.38864 6.51562H44.8994C46.7709 6.51562 48.2881 8.03277 48.2881 9.90426V44.6378C48.2881 48.3808 45.2538 51.415 41.5108 51.415H3.38863C1.51714 51.415 0 49.8979 0 48.0264V9.90426Z" fill="#004C9B"/>
<path d="M0 18.3759C0 16.5044 1.51714 14.9873 3.38864 14.9873H36.4278C38.2993 14.9873 39.8165 16.5044 39.8165 18.3759V45.485C39.8165 49.228 36.7822 52.2623 33.0392 52.2623H3.38863C1.51714 52.2623 0 50.7452 0 48.8737V18.3759Z" fill="#003E7E"/>
<path d="M16.2007 53.9566L3.73393 38.3621L15.4078 24.5737H7.69863L-2.6977 37.7013V24.5737H-8.95312V53.9566H-2.6977V44.9259L-0.406985 42.1946L8.49157 53.9566H16.2007Z" fill="white"/>
<path d="M34.9997 53.9566C40.5943 53.9566 43.5458 50.4324 43.5458 46.0272C43.5458 42.3268 41.0348 39.2872 37.9071 38.8026C40.6824 38.2299 42.9731 35.763 42.9731 32.0626C42.9731 28.142 40.1097 24.5737 34.5151 24.5737H19.0528V53.9566H34.9997ZM33.1495 36.3357H25.3082V29.9481H33.1495C35.264 29.9481 36.5856 31.3137 36.5856 33.1639C36.5856 35.0141 35.264 36.3357 33.1495 36.3357ZM33.3697 48.5382H25.3082V41.7101H33.3697C35.8367 41.7101 37.1582 43.2959 37.1582 45.1461C37.1582 47.2606 35.7486 48.5382 33.3697 48.5382Z" fill="white"/>
<path fill-rule="evenodd" clip-rule="evenodd" d="M0 42.7321V34.2944L7.69863 24.5732H15.4078L3.73393 38.3616L14.1689 51.4146H6.56875L0 42.7321ZM41.5906 51.4141C41.5641 51.4144 41.5374 51.4146 41.5108 51.4146H19.0528V24.5732H34.5151C40.1097 24.5732 42.9731 28.1415 42.9731 32.0621C42.9731 35.7625 40.6824 38.2294 37.9071 38.8021C41.0348 39.2867 43.5458 42.3263 43.5458 46.0267C43.5458 48.114 42.8831 50.0036 41.5906 51.4141ZM25.3082 36.3352H33.1495C35.264 36.3352 36.5856 35.0136 36.5856 33.1634C36.5856 31.3132 35.264 29.9476 33.1495 29.9476H25.3082V36.3352ZM25.3082 48.5377H33.3697C35.7486 48.5377 37.1582 47.2602 37.1582 45.1456C37.1582 43.2955 35.8367 41.7096 33.3697 41.7096H25.3082V48.5377Z" fill="white"/>
</g>
<path d="M71.1212 34.4186V28.169H67.4859V34.4186H66.4039V27.1798H72.2031V34.4186H71.1212Z" fill="#999999"/>
<path d="M77.7969 34.5984C77.316 34.5984 76.8736 34.4885 76.4697 34.2687C76.0658 34.0489 75.7244 33.7341 75.4455 33.3245V37.1762H74.3635V27.1798H75.4455V28.2589C75.6955 27.8892 76.0273 27.5895 76.4409 27.3597C76.8544 27.1199 77.3064 27 77.7969 27C78.2585 27 78.6769 27.0899 79.052 27.2698C79.4366 27.4396 79.7636 27.6894 80.0329 28.0191C80.3118 28.3388 80.5234 28.7335 80.6677 29.2031C80.8215 29.6727 80.8985 30.2022 80.8985 30.7917C80.8985 31.3812 80.8215 31.9107 80.6677 32.3803C80.5234 32.8499 80.3118 33.2496 80.0329 33.5793C79.7636 33.909 79.4366 34.1638 79.052 34.3436C78.6769 34.5135 78.2585 34.5984 77.7969 34.5984ZM77.5228 33.5943C77.869 33.5943 78.1816 33.5243 78.4605 33.3844C78.7394 33.2446 78.975 33.0497 79.1674 32.8C79.3597 32.5502 79.504 32.2554 79.6001 31.9157C79.7059 31.566 79.7588 31.1914 79.7588 30.7917C79.7588 30.3921 79.7059 30.0224 79.6001 29.6827C79.504 29.343 79.3597 29.0482 79.1674 28.7984C78.975 28.5487 78.7394 28.3538 78.4605 28.2139C78.1816 28.0741 77.869 28.0041 77.5228 28.0041C77.09 28.0041 76.6813 28.119 76.2966 28.3488C75.9215 28.5686 75.6378 28.8384 75.4455 29.1581V32.4253C75.6378 32.745 75.9215 33.0198 76.2966 33.2496C76.6813 33.4794 77.09 33.5943 77.5228 33.5943Z" fill="#999999"/>
<path d="M85.6629 34.5984C85.1339 34.5984 84.653 34.4985 84.2203 34.2987C83.7971 34.0988 83.4365 33.8291 83.1383 33.4894C82.8402 33.1397 82.6094 32.735 82.4459 32.2754C82.292 31.8158 82.2151 31.3212 82.2151 30.7917C82.2151 30.2722 82.292 29.7826 82.4459 29.323C82.6094 28.8534 82.8402 28.4487 83.1383 28.109C83.4365 27.7693 83.7971 27.4996 84.2203 27.2997C84.653 27.0999 85.1339 27 85.6629 27C86.1918 27 86.6679 27.0999 87.091 27.2997C87.5238 27.4996 87.8893 27.7693 88.1874 28.109C88.4855 28.4487 88.7115 28.8534 88.8654 29.323C89.0289 29.7826 89.1106 30.2722 89.1106 30.7917C89.1106 31.3212 89.0289 31.8158 88.8654 32.2754C88.7115 32.735 88.4855 33.1397 88.1874 33.4894C87.8893 33.8291 87.5238 34.0988 87.091 34.2987C86.6679 34.4985 86.1918 34.5984 85.6629 34.5984ZM85.6629 33.5943C86.0379 33.5943 86.3649 33.5193 86.6438 33.3695C86.9323 33.2096 87.1728 33.0048 87.3651 32.755C87.5671 32.4952 87.7161 32.1955 87.8123 31.8558C87.9181 31.5161 87.971 31.1614 87.971 30.7917C87.971 30.422 87.9181 30.0723 87.8123 29.7426C87.7161 29.4029 87.5671 29.1082 87.3651 28.8584C87.1728 28.5986 86.9323 28.3938 86.6438 28.2439C86.3649 28.0841 86.0379 28.0041 85.6629 28.0041C85.2878 28.0041 84.956 28.0841 84.6675 28.2439C84.3789 28.3938 84.1337 28.5986 83.9317 28.8584C83.7394 29.1082 83.5903 29.4029 83.4845 29.7426C83.3884 30.0723 83.3403 30.422 83.3403 30.7917C83.3403 31.1614 83.3884 31.5161 83.4845 31.8558C83.5903 32.1955 83.7394 32.4952 83.9317 32.755C84.1337 33.0048 84.3789 33.2096 84.6675 33.3695C84.956 33.5193 85.2878 33.5943 85.6629 33.5943Z" fill="#999999"/>
<path d="M90.8744 34.4186V27.1798H91.9564V32.71L95.6061 27.1798H96.6737V34.4186H95.5917V28.7835L91.9131 34.4186H90.8744Z" fill="#999999"/>
<path d="M101.301 34.5984C100.599 34.5984 99.9833 34.4935 99.4544 34.2837C98.935 34.0639 98.5022 33.7741 98.156 33.4144L98.6898 32.6951C99.0168 33.0148 99.4015 33.2596 99.8439 33.4294C100.296 33.5893 100.782 33.6692 101.301 33.6692C101.926 33.6692 102.421 33.5543 102.787 33.3245C103.162 33.0947 103.349 32.79 103.349 32.4103C103.349 32.1905 103.292 32.0056 103.176 31.8558C103.061 31.6959 102.902 31.571 102.7 31.4811C102.508 31.3812 102.277 31.3113 102.008 31.2713C101.748 31.2313 101.464 31.2113 101.157 31.2113H99.5986V30.2971H101.157C101.445 30.2971 101.714 30.2722 101.964 30.2222C102.215 30.1722 102.431 30.0973 102.614 29.9974C102.806 29.8975 102.955 29.7726 103.061 29.6227C103.167 29.4729 103.22 29.293 103.22 29.0832C103.22 28.9133 103.167 28.7585 103.061 28.6186C102.955 28.4687 102.811 28.3438 102.628 28.2439C102.455 28.144 102.243 28.0691 101.993 28.0191C101.743 27.9592 101.474 27.9292 101.185 27.9292C100.214 27.9292 99.4351 28.2389 98.8485 28.8584L98.2859 28.169C98.6128 27.8193 99.012 27.5395 99.4832 27.3297C99.9545 27.1199 100.507 27.015 101.142 27.015C101.613 27.015 102.041 27.0599 102.426 27.1499C102.82 27.2298 103.157 27.3547 103.436 27.5245C103.724 27.6844 103.946 27.8842 104.1 28.124C104.263 28.3638 104.345 28.6386 104.345 28.9483C104.345 29.2181 104.282 29.4579 104.157 29.6677C104.042 29.8775 103.893 30.0573 103.71 30.2072C103.527 30.3471 103.325 30.462 103.104 30.5519C102.883 30.6318 102.671 30.6868 102.469 30.7168C102.671 30.7368 102.888 30.7817 103.119 30.8517C103.359 30.9216 103.58 31.0315 103.782 31.1814C103.984 31.3212 104.152 31.5011 104.287 31.7209C104.422 31.9307 104.489 32.1855 104.489 32.4852C104.489 32.785 104.417 33.0647 104.273 33.3245C104.128 33.5843 103.917 33.8091 103.638 33.9989C103.369 34.1887 103.037 34.3336 102.642 34.4335C102.248 34.5434 101.801 34.5984 101.301 34.5984Z" fill="#999999"/>
<path d="M106.244 34.4186V27.1798H110.082C110.697 27.1798 111.178 27.3547 111.524 27.7044C111.87 28.0441 112.043 28.4887 112.043 29.0382C112.043 29.4778 111.928 29.8375 111.697 30.1173C111.476 30.397 111.216 30.5869 110.918 30.6868C111.091 30.7367 111.255 30.8167 111.409 30.9266C111.563 31.0365 111.697 31.1714 111.813 31.3312C111.928 31.4911 112.019 31.6659 112.087 31.8558C112.154 32.0456 112.188 32.2454 112.188 32.4553C112.188 33.0447 112.01 33.5193 111.654 33.879C111.298 34.2387 110.798 34.4186 110.154 34.4186H106.244ZM109.937 33.4294C110.283 33.4294 110.558 33.3345 110.76 33.1447C110.961 32.9448 111.062 32.6701 111.062 32.3204C111.062 32.0306 110.966 31.7709 110.774 31.5411C110.582 31.3113 110.303 31.1964 109.937 31.1964H107.326V33.4294H109.937ZM109.894 30.2072C110.231 30.2072 110.485 30.1123 110.659 29.9225C110.841 29.7326 110.933 29.4928 110.933 29.2031C110.933 28.8834 110.841 28.6336 110.659 28.4537C110.485 28.2639 110.231 28.169 109.894 28.169H107.326V30.2072H109.894Z" fill="#999999"/>
<path d="M117.276 34.5984C116.747 34.5984 116.266 34.4985 115.833 34.2987C115.41 34.0988 115.049 33.8291 114.751 33.4894C114.453 33.1397 114.222 32.735 114.059 32.2754C113.905 31.8158 113.828 31.3212 113.828 30.7917C113.828 30.2722 113.905 29.7826 114.059 29.323C114.222 28.8534 114.453 28.4487 114.751 28.109C115.049 27.7693 115.41 27.4996 115.833 27.2997C116.266 27.0999 116.747 27 117.276 27C117.805 27 118.281 27.0999 118.704 27.2997C119.137 27.4996 119.502 27.7693 119.8 28.109C120.099 28.4487 120.325 28.8534 120.478 29.323C120.642 29.7826 120.724 30.2722 120.724 30.7917C120.724 31.3212 120.642 31.8158 120.478 32.2754C120.325 32.735 120.099 33.1397 119.8 33.4894C119.502 33.8291 119.137 34.0988 118.704 34.2987C118.281 34.4985 117.805 34.5984 117.276 34.5984ZM117.276 33.5943C117.651 33.5943 117.978 33.5193 118.257 33.3695C118.545 33.2096 118.786 33.0048 118.978 32.755C119.18 32.4952 119.329 32.1955 119.425 31.8558C119.531 31.5161 119.584 31.1614 119.584 30.7917C119.584 30.422 119.531 30.0723 119.425 29.7426C119.329 29.4029 119.18 29.1082 118.978 28.8584C118.786 28.5986 118.545 28.3938 118.257 28.2439C117.978 28.0841 117.651 28.0041 117.276 28.0041C116.901 28.0041 116.569 28.0841 116.28 28.2439C115.992 28.3938 115.747 28.5986 115.545 28.8584C115.352 29.1082 115.203 29.4029 115.098 29.7426C115.001 30.0723 114.953 30.422 114.953 30.7917C114.953 31.1614 115.001 31.5161 115.098 31.8558C115.203 32.1955 115.352 32.4952 115.545 32.755C115.747 33.0048 115.992 33.2096 116.28 33.3695C116.569 33.5193 116.901 33.5943 117.276 33.5943Z" fill="#999999"/>
<path d="M121.665 33.4894C121.829 33.4594 121.973 33.3994 122.098 33.3095C122.233 33.2196 122.353 33.0747 122.459 32.8749C122.574 32.6751 122.675 32.4053 122.762 32.0656C122.848 31.7259 122.925 31.2863 122.992 30.7467L123.44 27.1798H128.287V33.4294H129.095V36.2619H128.013V34.4186H122.747V36.2619H121.665V33.4894ZM124.074 30.8816C123.988 31.571 123.858 32.1156 123.685 32.5152C123.521 32.9149 123.315 33.2196 123.065 33.4294H127.205V28.169H124.392L124.074 30.8816Z" fill="#999999"/>
<path d="M133.647 34.5984C133.127 34.5984 132.651 34.5035 132.218 34.3136C131.795 34.1138 131.43 33.844 131.122 33.5043C130.824 33.1646 130.588 32.765 130.415 32.3054C130.252 31.8358 130.17 31.3312 130.17 30.7917C130.17 30.2522 130.252 29.7526 130.415 29.293C130.588 28.8334 130.824 28.4338 131.122 28.094C131.43 27.7543 131.795 27.4896 132.218 27.2997C132.651 27.0999 133.127 27 133.647 27C134.281 27 134.796 27.1199 135.19 27.3597C135.594 27.5995 135.931 27.8992 136.2 28.2589L135.479 28.9483C135.248 28.6186 134.983 28.3788 134.685 28.2289C134.397 28.0791 134.07 28.0041 133.704 28.0041C133.329 28.0041 132.993 28.0741 132.694 28.2139C132.406 28.3538 132.156 28.5487 131.944 28.7984C131.733 29.0482 131.569 29.343 131.454 29.6827C131.348 30.0224 131.295 30.3921 131.295 30.7917C131.295 31.1914 131.348 31.566 131.454 31.9157C131.569 32.2554 131.733 32.5502 131.944 32.8C132.156 33.0497 132.406 33.2446 132.694 33.3844C132.993 33.5243 133.329 33.5943 133.704 33.5943C134.435 33.5943 135.027 33.2795 135.479 32.6501L136.2 33.3395C135.931 33.6992 135.594 33.9989 135.19 34.2387C134.796 34.4785 134.281 34.5984 133.647 34.5984Z" fill="#999999"/>
<path d="M138.986 34.4186V28.169H136.966V27.1798H142.102V28.169H140.068V34.4186H138.986Z" fill="#999999"/>
<path d="M143.521 34.4186V27.1798H147.358C147.973 27.1798 148.454 27.3547 148.8 27.7044C149.147 28.0441 149.32 28.4887 149.32 29.0382C149.32 29.4778 149.204 29.8375 148.974 30.1173C148.752 30.397 148.493 30.5869 148.195 30.6868C148.368 30.7367 148.531 30.8167 148.685 30.9266C148.839 31.0365 148.974 31.1714 149.089 31.3312C149.204 31.4911 149.296 31.6659 149.363 31.8558C149.43 32.0456 149.464 32.2454 149.464 32.4553C149.464 33.0447 149.286 33.5193 148.93 33.879C148.574 34.2387 148.074 34.4186 147.43 34.4186H143.521ZM147.214 33.4294C147.56 33.4294 147.834 33.3345 148.036 33.1447C148.238 32.9448 148.339 32.6701 148.339 32.3204C148.339 32.0306 148.243 31.7709 148.05 31.5411C147.858 31.3113 147.579 31.1964 147.214 31.1964H144.602V33.4294H147.214ZM147.17 30.2072C147.507 30.2072 147.762 30.1123 147.935 29.9225C148.118 29.7326 148.209 29.4928 148.209 29.2031C148.209 28.8834 148.118 28.6336 147.935 28.4537C147.762 28.2639 147.507 28.169 147.17 28.169H144.602V30.2072H147.17Z" fill="#999999"/>
<path d="M154.552 34.5984C154.023 34.5984 153.542 34.4985 153.11 34.2987C152.686 34.0988 152.326 33.8291 152.028 33.4894C151.73 33.1397 151.499 32.735 151.335 32.2754C151.181 31.8158 151.104 31.3212 151.104 30.7917C151.104 30.2722 151.181 29.7826 151.335 29.323C151.499 28.8534 151.73 28.4487 152.028 28.109C152.326 27.7693 152.686 27.4996 153.11 27.2997C153.542 27.0999 154.023 27 154.552 27C155.081 27 155.557 27.0999 155.98 27.2997C156.413 27.4996 156.779 27.7693 157.077 28.109C157.375 28.4487 157.601 28.8534 157.755 29.323C157.918 29.7826 158 30.2722 158 30.7917C158 31.3212 157.918 31.8158 157.755 32.2754C157.601 32.735 157.375 33.1397 157.077 33.4894C156.779 33.8291 156.413 34.0988 155.98 34.2987C155.557 34.4985 155.081 34.5984 154.552 34.5984ZM154.552 33.5943C154.927 33.5943 155.254 33.5193 155.533 33.3695C155.822 33.2096 156.062 33.0048 156.254 32.755C156.456 32.4952 156.605 32.1955 156.702 31.8558C156.807 31.5161 156.86 31.1614 156.86 30.7917C156.86 30.422 156.807 30.0723 156.702 29.7426C156.605 29.4029 156.456 29.1082 156.254 28.8584C156.062 28.5986 155.822 28.3938 155.533 28.2439C155.254 28.0841 154.927 28.0041 154.552 28.0041C154.177 28.0041 153.845 28.0841 153.557 28.2439C153.268 28.3938 153.023 28.5986 152.821 28.8584C152.629 29.1082 152.48 29.4029 152.374 29.7426C152.278 30.0723 152.23 30.422 152.23 30.7917C152.23 31.1614 152.278 31.5161 152.374 31.8558C152.48 32.1955 152.629 32.4952 152.821 32.755C153.023 33.0048 153.268 33.2096 153.557 33.3695C153.845 33.5193 154.177 33.5943 154.552 33.5943Z" fill="#999999"/>
<path d="M69.4766 48.3364C68.9573 48.3364 68.4813 48.2415 68.0485 48.0517C67.6253 47.8519 67.2599 47.5821 66.9521 47.2424C66.654 46.9027 66.4184 46.503 66.2452 46.0434C66.0817 45.5738 66 45.0693 66 44.5298C66 43.9902 66.0817 43.4907 66.2452 43.0311C66.4184 42.5715 66.654 42.1718 66.9521 41.8321C67.2599 41.4924 67.6253 41.2276 68.0485 41.0378C68.4813 40.838 68.9573 40.7381 69.4766 40.7381C70.1114 40.7381 70.6259 40.858 71.0202 41.0977C71.4241 41.3375 71.7607 41.6373 72.03 41.997L71.3087 42.6864C71.0779 42.3566 70.8134 42.1169 70.5153 41.967C70.2268 41.8171 69.8998 41.7422 69.5343 41.7422C69.1593 41.7422 68.8227 41.8121 68.5245 41.952C68.236 42.0919 67.986 42.2867 67.7744 42.5365C67.5628 42.7863 67.3993 43.081 67.2839 43.4207C67.1781 43.7604 67.1252 44.1301 67.1252 44.5298C67.1252 44.9294 67.1781 45.3041 67.2839 45.6538C67.3993 45.9935 67.5628 46.2882 67.7744 46.538C67.986 46.7878 68.236 46.9826 68.5245 47.1225C68.8227 47.2624 69.1593 47.3323 69.5343 47.3323C70.2653 47.3323 70.8567 47.0176 71.3087 46.3881L72.03 47.0775C71.7607 47.4372 71.4241 47.737 71.0202 47.9768C70.6259 48.2166 70.1114 48.3364 69.4766 48.3364Z" fill="#999999"/>
<path d="M78.2637 48.1566V41.907H74.6284V48.1566H73.5464V40.9179H79.3457V48.1566H78.2637Z" fill="#999999"/>
<path d="M84.6509 48.3364C84.1316 48.3364 83.6555 48.2465 83.2227 48.0667C82.79 47.8768 82.4149 47.6171 82.0975 47.2874C81.7898 46.9477 81.5445 46.548 81.3618 46.0884C81.1887 45.6188 81.1021 45.0993 81.1021 44.5298C81.1021 44.0102 81.1887 43.5206 81.3618 43.061C81.5349 42.5914 81.7705 42.1868 82.0687 41.8471C82.3764 41.5074 82.7371 41.2376 83.1506 41.0378C83.5738 40.838 84.0354 40.7381 84.5355 40.7381C85.0644 40.7381 85.5357 40.838 85.9492 41.0378C86.3628 41.2376 86.7138 41.5124 87.0023 41.8621C87.2908 42.2118 87.5072 42.6264 87.6515 43.106C87.8054 43.5756 87.8823 44.0801 87.8823 44.6197V44.9044H82.2418C82.261 45.2441 82.3331 45.5689 82.4582 45.8786C82.5832 46.1783 82.7515 46.4431 82.9631 46.6729C83.1843 46.8927 83.4439 47.0725 83.7421 47.2124C84.0402 47.3423 84.3768 47.4073 84.7519 47.4073C85.1558 47.4073 85.5453 47.3273 85.9204 47.1675C86.2955 47.0076 86.6224 46.7828 86.9013 46.493L87.4207 47.2274C87.0745 47.5871 86.6705 47.8619 86.2089 48.0517C85.7473 48.2415 85.2279 48.3364 84.6509 48.3364ZM86.8148 44.0801C86.8148 43.8104 86.7667 43.5356 86.6705 43.2559C86.584 42.9661 86.4445 42.7063 86.2522 42.4765C86.0694 42.2368 85.8338 42.0419 85.5453 41.892C85.2568 41.7422 84.9154 41.6672 84.5211 41.6672C84.146 41.6672 83.819 41.7422 83.5401 41.892C83.2612 42.0419 83.0256 42.2318 82.8332 42.4616C82.6505 42.6914 82.5062 42.9511 82.4005 43.2409C82.3043 43.5206 82.2514 43.8004 82.2418 44.0801H86.8148Z" fill="#999999"/>
<path d="M95.1598 48.1566H89.6347V40.9179H90.7167V47.1675H94.352V40.9179H95.4339V47.1675H96.2418V50H95.1598V48.1566Z" fill="#999999"/>
<path d="M98.9906 48.1566V41.907H96.971V40.9179H102.107V41.907H100.073V48.1566H98.9906Z" fill="#999999"/>
<path d="M106.67 48.3364C106.151 48.3364 105.675 48.2465 105.242 48.0667C104.809 47.8768 104.434 47.6171 104.117 47.2874C103.809 46.9477 103.564 46.548 103.381 46.0884C103.208 45.6188 103.121 45.0993 103.121 44.5298C103.121 44.0102 103.208 43.5206 103.381 43.061C103.554 42.5914 103.79 42.1868 104.088 41.8471C104.396 41.5074 104.756 41.2376 105.17 41.0378C105.593 40.838 106.055 40.7381 106.555 40.7381C107.084 40.7381 107.555 40.838 107.968 41.0378C108.382 41.2376 108.733 41.5124 109.022 41.8621C109.31 42.2118 109.526 42.6264 109.671 43.106C109.825 43.5756 109.902 44.0801 109.902 44.6197V44.9044H104.261C104.28 45.2441 104.352 45.5689 104.477 45.8786C104.602 46.1783 104.771 46.4431 104.982 46.6729C105.203 46.8927 105.463 47.0725 105.761 47.2124C106.059 47.3423 106.396 47.4073 106.771 47.4073C107.175 47.4073 107.565 47.3273 107.94 47.1675C108.315 47.0076 108.642 46.7828 108.921 46.493L109.44 47.2274C109.094 47.5871 108.69 47.8619 108.228 48.0517C107.767 48.2415 107.247 48.3364 106.67 48.3364ZM108.834 44.0801C108.834 43.8104 108.786 43.5356 108.69 43.2559C108.603 42.9661 108.464 42.7063 108.271 42.4765C108.089 42.2368 107.853 42.0419 107.565 41.892C107.276 41.7422 106.935 41.6672 106.54 41.6672C106.165 41.6672 105.838 41.7422 105.559 41.892C105.28 42.0419 105.045 42.2318 104.852 42.4616C104.67 42.6914 104.525 42.9511 104.42 43.2409C104.324 43.5206 104.271 43.8004 104.261 44.0801H108.834Z" fill="#999999"/>
<path d="M116.169 48.1566L114.077 45.1892L111.986 48.1566H110.745L113.414 44.4398L110.889 40.9179H112.144L114.077 43.6755L116.011 40.9179H117.266L114.741 44.4398L117.424 48.1566H116.169Z" fill="#999999"/>
<path d="M118.67 48.1566V40.9179H119.752V43.9303H123.387V40.9179H124.469V48.1566H123.387V44.9194H119.752V48.1566H118.67Z" fill="#999999"/>
<path d="M126.629 48.1566V40.9179H127.711V46.4481L131.361 40.9179H132.428V48.1566H131.347V42.5215L127.668 48.1566H126.629Z" fill="#999999"/>
<path d="M139.335 48.1566L136.825 44.9044L135.671 46.0884V48.1566H134.589V40.9179H135.671V44.7695L139.335 40.9179H140.705L137.618 44.2L140.72 48.1566H139.335Z" fill="#999999"/>
<path d="M141.999 48.1566V40.9179H143.081V46.4481L146.731 40.9179H147.798V48.1566H146.716V42.5215L143.038 48.1566H141.999Z" fill="#999999"/>
</svg>
