<svg width="16" height="16" viewBox="0 0 16 16" fill="none" xmlns="http://www.w3.org/2000/svg">
<path d="M7.99984 2.66685V1.47352C7.99984 1.17352 7.63984 1.02685 7.43317 1.24018L5.5665 3.10018C5.43317 3.23352 5.43317 3.44018 5.5665 3.57352L7.4265 5.43352C7.63984 5.64018 7.99984 5.49352 7.99984 5.19352V4.00018C10.2065 4.00018 11.9998 5.79352 11.9998 8.00018C11.9998 8.52685 11.8998 9.04018 11.7065 9.50018C11.6065 9.74018 11.6798 10.0135 11.8598 10.1935C12.1998 10.5335 12.7732 10.4135 12.9532 9.96685C13.1998 9.36018 13.3332 8.69352 13.3332 8.00018C13.3332 5.05352 10.9465 2.66685 7.99984 2.66685ZM7.99984 12.0002C5.79317 12.0002 3.99984 10.2069 3.99984 8.00018C3.99984 7.47352 4.09984 6.96018 4.29317 6.50018C4.39317 6.26018 4.31984 5.98685 4.13984 5.80685C3.79984 5.46685 3.2265 5.58685 3.0465 6.03352C2.79984 6.64018 2.6665 7.30685 2.6665 8.00018C2.6665 10.9468 5.05317 13.3335 7.99984 13.3335V14.5269C7.99984 14.8269 8.35984 14.9735 8.5665 14.7602L10.4265 12.9002C10.5598 12.7669 10.5598 12.5602 10.4265 12.4268L8.5665 10.5669C8.35984 10.3602 7.99984 10.5068 7.99984 10.8068V12.0002Z" fill="#999999"/>
</svg>
